<?xml version="1.0" encoding="UTF-8"?>
<svg xmlns="http://www.w3.org/2000/svg" width="1024" height="1024" viewBox="0 0 923 923">
  <g>
    <path fill="#FFFFFF" stroke="none" 
	d="
M298.559448,99.758842 
	C330.383453,84.283058 363.422516,73.528214 397.816895,67.321129 
	C432.016113,61.149261 466.468994,58.953213 501.289093,61.633747 
	C546.896790,65.144745 590.628113,75.748451 632.537170,93.888481 
	C666.366394,108.531227 697.361938,127.764099 725.890808,151.205994 
	C757.175049,176.911972 784.123108,206.464783 806.450867,240.119461 
	C830.275757,276.030823 848.142090,314.754211 859.352478,356.499390 
	C871.438049,401.503296 875.751770,447.286438 872.014160,493.604370 
	C866.024902,567.825378 841.276001,635.400940 797.595337,695.881104 
	C749.414185,762.592651 686.855164,810.539001 609.614563,838.947083 
	C581.596619,849.251709 552.644714,856.581055 522.939270,859.959717 
	C487.922363,863.942322 452.904449,864.012268 417.797729,859.387207 
	C349.719391,850.418335 288.194427,825.226624 233.279282,784.588501 
	C175.637360,741.932373 132.188004,687.463074 103.367500,621.556702 
	C90.085648,591.183899 80.811386,559.614136 75.669373,526.934082 
	C70.741127,495.612671 69.172440,464.136230 71.525787,432.348389 
	C77.143120,356.472290 102.201843,287.828247 146.632370,226.281860 
	C165.805786,199.722351 188.355042,176.200363 213.316086,154.879868 
	C239.224014,132.750595 267.751770,114.889687 298.559448,99.758842 
M803.944824,634.088928 
	C803.944824,634.088928 803.877869,634.159241 803.758362,634.877625 
	C806.763611,639.613953 808.026306,635.451355 808.997009,633.571228 
	C821.008118,610.308960 830.911377,586.158630 837.100708,560.706726 
	C841.174622,543.953735 843.990784,526.892578 847.232788,509.943085 
	C847.571228,508.173676 846.976807,506.225830 846.815247,504.360748 
	C846.312866,504.337891 845.810547,504.315033 845.308228,504.292175 
	C844.036255,506.201263 842.698364,508.070160 841.503845,510.026520 
	C836.824585,517.690125 832.190918,525.381714 827.539673,533.062439 
	C814.095764,555.262573 800.640564,577.455811 787.219727,599.669861 
	C785.273254,602.891724 785.209351,605.883118 789.071960,608.420105 
	C789.071960,608.420105 789.200195,608.795593 789.007935,609.479370 
	C789.908081,610.707947 790.808167,611.936462 791.952393,613.500549 
	C791.952393,613.500549 792.100037,613.888306 791.953674,614.572266 
	C792.853027,615.778503 793.752441,616.984741 794.917542,618.527527 
	C794.917542,618.527527 795.059265,618.932190 794.898682,619.634644 
	C796.146362,621.487488 797.394043,623.340393 798.984863,625.624939 
	C799.141785,625.956421 799.298645,626.287964 799.196960,627.311401 
	C800.747803,629.576538 802.298584,631.841675 803.944824,634.088928 
M207.116135,521.128174 
	C215.273697,507.285736 223.515747,493.492218 231.572464,479.591339 
	C252.914902,442.767609 274.141205,405.876495 295.534790,369.082611 
	C297.395599,365.882233 297.490570,363.570526 295.152832,360.562714 
	C279.136963,339.955994 263.277924,319.227386 247.366226,298.539673 
	C229.832977,275.743622 212.309372,252.940125 194.752304,230.162415 
	C191.403137,225.817352 189.898880,226.026306 187.849319,231.147263 
	C184.697144,239.023178 181.711014,246.965393 178.582764,254.851044 
	C167.680191,282.334015 156.709824,309.790161 145.837006,337.284851 
	C137.339706,358.772522 129.000961,380.322876 120.496002,401.807495 
	C111.997917,423.274750 103.255447,444.646820 94.985886,466.200928 
	C94.028641,468.695923 94.448387,472.677521 95.857750,474.968231 
	C105.693840,490.955200 115.964203,506.674866 126.085480,522.486511 
	C138.901245,542.507629 151.713852,562.530884 164.513123,582.562561 
	C167.447021,587.154297 169.459702,587.079224 172.255020,582.241455 
	C181.156189,566.836548 190.132477,551.474548 198.936600,536.014465 
	C201.525833,531.467712 203.639313,526.650146 206.091904,521.493958 
	C206.091904,521.493958 206.434814,521.160583 207.116135,521.128174 
M312.499817,640.444946 
	C347.481750,640.440613 382.463806,640.401306 417.445526,640.484741 
	C421.045959,640.493347 423.732605,639.636353 426.057129,636.655457 
	C438.240814,621.031677 450.513641,605.475342 462.945862,590.048950 
	C465.743469,586.577515 465.776917,584.009277 462.991150,580.485901 
	C452.460571,567.167114 442.195465,553.638245 431.840942,540.180298 
	C394.172943,491.222839 356.514801,442.257690 318.832336,393.311310 
	C315.762756,389.324188 312.537018,385.457275 308.971039,381.020874 
	C307.580872,383.130096 306.716797,384.313080 305.984467,385.572632 
	C300.465942,395.064453 294.970306,404.569550 289.473145,414.073761 
	C253.804016,475.743256 218.160660,537.427795 182.402420,599.045593 
	C180.436325,602.433472 180.601578,604.923462 182.741821,608.111633 
	C188.773956,617.097412 194.605957,626.224976 200.256287,635.456055 
	C202.500748,639.122864 205.147491,640.558472 209.553314,640.535034 
	C243.534668,640.354126 277.517456,640.441162 312.499817,640.444946 
M658.761658,419.831024 
	C652.703979,409.413483 646.646240,398.995941 640.041931,387.638397 
	C632.130249,397.580505 625.080688,406.393890 618.079346,415.245331 
	C588.738647,452.339233 559.415161,489.446716 530.079651,526.544617 
	C515.514954,544.963257 500.952972,563.384033 486.348053,581.770691 
	C484.455536,584.153198 484.001831,586.122070 486.111450,588.823914 
	C498.410278,604.575378 510.591217,620.419800 522.690186,636.325500 
	C524.909973,639.243652 527.370728,640.575317 531.110718,640.507812 
	C542.103821,640.309265 553.102844,640.443054 564.099548,640.442322 
	C623.415100,640.438049 682.730774,640.382996 742.045959,640.524231 
	C746.635559,640.535156 749.363525,639.132202 751.572266,635.109131 
	C755.576782,627.815125 759.890808,620.666138 764.499695,613.738770 
	C767.058777,609.892273 767.103271,606.886597 764.723328,602.850342 
	C750.863159,579.344055 737.275879,555.676697 723.613586,532.053772 
	C702.105713,494.865265 680.611572,457.668884 658.761658,419.831024 
M530.429565,834.358887 
	C538.112122,832.892334 545.818665,831.540161 553.472961,829.938293 
	C579.316711,824.529846 604.131226,815.955322 628.240051,805.283752 
	C633.596497,802.912842 633.629578,802.428833 630.126160,797.865723 
	C622.925171,788.486816 615.700806,779.125793 608.492920,769.752197 
	C580.984924,733.978516 553.527466,698.165771 525.846436,662.526428 
	C524.296997,660.531555 520.920288,658.912354 518.378967,658.890686 
	C489.057037,658.641174 459.731537,658.645752 430.409515,658.891541 
	C427.861694,658.912964 424.591614,660.488403 422.923767,662.430115 
	C416.091644,670.383850 409.737854,678.749329 403.231140,686.981567 
	C373.801514,724.215454 344.432037,761.497314 314.877563,798.631897 
	C311.778198,802.526184 312.607269,804.227417 316.754486,805.706909 
	C335.541016,812.408752 354.071045,819.963440 373.156342,825.660339 
	C397.279175,832.860779 422.142029,836.606262 447.355774,838.026245 
	C474.898834,839.577454 502.282990,838.545593 530.429565,834.358887 
M789.768677,262.134583 
	C786.076599,248.262482 775.583435,238.801483 766.788025,226.739410 
	C765.317322,227.883484 764.704041,229.508926 763.676697,230.806458 
	C751.068970,246.729752 738.337341,262.555206 725.761719,278.503693 
	C702.773010,307.658142 679.977844,336.966339 656.808289,365.975861 
	C653.319275,370.344269 652.986938,373.430298 655.786682,378.222809 
	C680.295288,420.175537 704.566162,462.267181 728.895691,504.324493 
	C744.402893,531.130859 759.882751,557.953125 775.405945,584.750122 
	C776.265686,586.234192 777.411438,587.552612 778.739685,589.383057 
	C779.780151,587.988831 780.416382,587.268494 780.907043,586.459900 
	C799.133484,556.418701 817.397034,526.399719 835.448547,496.253632 
	C836.665039,494.222198 836.984192,491.081116 836.509521,488.697296 
	C831.379395,462.936218 826.011719,437.222412 820.698608,411.497833 
	C810.470581,361.975983 800.235901,312.455566 789.768677,262.134583 
M600.394348,106.853920 
	C564.116028,93.443184 526.553955,86.802940 488.134796,84.682877 
	C487.782440,85.140038 487.430054,85.597206 487.077698,86.054367 
	C539.542664,176.806503 592.007568,267.558655 645.489990,360.070801 
	C646.979187,357.628967 647.632202,356.259674 648.548706,355.098328 
	C684.130310,310.012848 719.708008,264.924164 755.400146,219.926331 
	C757.818726,216.877197 757.593445,214.819763 754.997803,212.266266 
	C745.158203,202.586426 735.617615,192.593674 725.584229,183.121445 
	C689.473206,149.029922 647.598511,124.290184 600.394348,106.853920 
M265.323700,145.721283 
	C261.362000,148.485046 257.413391,151.267838 253.436386,154.009384 
	C232.498611,168.442825 213.818756,185.462509 196.242020,203.764389 
	C193.977448,206.122391 193.221466,207.644043 195.717606,210.779053 
	C203.686005,220.786957 210.988602,231.321304 218.780258,241.474335 
	C245.039551,275.691864 271.392578,309.837433 297.733490,343.992249 
	C299.667908,346.500519 301.791656,348.862793 304.245667,351.792267 
	C355.860321,262.502991 406.887787,174.229568 458.588348,84.791718 
	C387.751709,87.540939 324.125244,107.764435 265.323700,145.721283 
M602.421509,740.029846 
	C602.945557,740.677307 603.482666,741.314697 603.991821,741.973694 
	C617.021790,758.839722 629.995178,775.750244 643.171936,792.500793 
	C644.301392,793.936584 647.544495,795.554443 648.495483,794.966919 
	C652.632202,792.411194 657.372437,789.781372 659.916748,785.887024 
	C669.292542,771.536377 677.879395,756.670410 686.769043,742.001953 
	C700.658997,719.082947 714.569214,696.176208 728.433167,673.241516 
	C731.100098,668.829651 733.593567,664.313049 736.469666,659.319275 
	C670.718018,659.319275 606.285767,659.319275 540.520691,659.319275 
	C561.537964,686.715515 581.766846,713.083984 602.421509,740.029846 
M334.226410,752.683716 
	C358.616455,721.832458 383.006470,690.981262 408.155365,659.170166 
	C343.409027,659.170166 280.279724,659.170166 215.634201,659.170166 
	C244.680527,704.241455 273.065643,748.286743 302.080475,793.309143 
	C313.182892,779.267700 323.477112,766.248352 334.226410,752.683716 
M727.106750,739.600586 
	C752.737427,716.105469 774.423645,689.398315 793.613770,659.082764 
	C790.733704,658.896301 789.148315,658.709290 787.562439,658.704651 
	C777.731750,658.675537 767.895752,658.872192 758.072632,658.596924 
	C754.011963,658.483093 751.752869,660.006836 749.711243,663.401489 
	C728.942017,697.935547 708.022278,732.378906 687.170776,766.863586 
	C686.310974,768.285461 685.710388,769.864075 684.989075,771.369690 
	C685.365417,771.650818 685.741760,771.931946 686.118103,772.213074 
	C700.458740,762.600342 714.142212,752.141602 727.106750,739.600586 
M160.097733,600.765259 
	C159.535797,598.802185 159.402939,596.564453 158.348221,594.916870 
	C139.156570,564.937805 119.862137,535.024475 100.550079,505.122681 
	C99.647003,503.724396 98.376816,502.563232 97.277596,501.291626 
	C101.638512,549.659668 114.895203,594.963623 138.238403,638.790344 
	C145.917557,625.491333 152.866486,613.456970 160.097733,600.765259 
M108.186172,359.565521 
	C102.149231,378.062317 95.068726,419.651428 97.086288,428.092010 
	C123.272636,361.794617 149.030090,296.583130 174.787537,231.371597 
	C174.246796,231.139481 173.706055,230.907349 173.165314,230.675232 
	C143.383682,269.196167 121.499199,311.743835 108.186172,359.565521 
M418.517059,189.003662 
	C411.418335,201.218933 404.299530,213.422607 397.225006,225.651886 
	C382.236908,251.561020 367.269440,277.482086 352.298187,303.400940 
	C340.654022,323.559845 329.073395,343.755920 317.320526,363.851227 
	C315.382843,367.164307 315.923340,369.710602 318.076447,372.493286 
	C342.195099,403.664276 366.312592,434.836273 390.369690,466.054810 
	C416.959595,500.560059 443.477539,535.120789 470.048798,569.640381 
	C474.978271,576.044434 475.487946,576.029907 480.379639,569.836670 
	C493.881683,552.741943 507.341156,535.613525 520.865417,518.536377 
	C540.268372,494.036346 559.755737,469.603149 579.128357,445.079285 
	C596.131042,423.555542 612.917786,401.860046 630.068665,380.455780 
	C633.092163,376.682434 633.363098,373.636139 631.086182,369.711823 
	C613.482422,339.371582 595.941284,308.995056 578.362793,278.640137 
	C561.456421,249.445862 544.517761,220.270325 527.613403,191.074890 
	C510.701477,161.866394 493.855194,132.619797 476.888428,103.443268 
	C472.603851,96.075356 472.052521,96.213333 467.724640,103.720490 
	C451.454468,131.942764 435.147247,160.143692 418.517059,189.003662 
M837.119507,426.501282 
	C840.437073,442.227356 843.754700,457.953430 847.198914,474.279724 
	C859.482117,456.101746 830.889099,317.071167 811.078186,299.648132 
	C819.871765,342.376007 828.442200,384.019348 837.119507,426.501282 
M442.848663,640.400024 
	C464.382538,640.400024 485.916443,640.400024 507.538116,640.400024 
	C507.406891,639.234070 507.487366,638.818298 507.316528,638.593323 
	C497.265472,625.351318 487.211975,612.111084 477.106567,598.910583 
	C475.339142,596.601868 473.812378,597.595093 472.332001,599.474243 
	C462.656708,611.755859 452.911469,623.982727 443.287720,636.304443 
	C442.532501,637.271362 442.527130,638.823914 442.848663,640.400024 
M256.814178,772.670166 
	C264.767792,777.602905 272.182892,783.511292 281.256989,786.679443 
	C280.731445,784.158813 279.748932,782.275635 278.604553,780.496643 
	C253.232147,741.053406 227.816360,701.637939 202.508087,662.153625 
	C200.684158,659.308105 198.643143,658.008179 195.237686,658.041382 
	C181.755722,658.172729 168.271637,658.072144 154.788635,658.127930 
	C153.249451,658.134277 151.712112,658.583923 148.886902,659.032288 
	C154.021393,666.645081 158.411087,673.417786 163.062225,680.005920 
	C188.657349,716.260742 220.052963,746.675781 256.814178,772.670166 
M185.885452,640.079346 
	C186.067581,639.639587 186.536560,639.022095 186.390182,638.785889 
	C181.982574,631.671204 177.514267,624.594116 172.341904,616.377625 
	C167.429916,624.894958 163.228500,632.180176 158.471436,640.428894 
	C168.378937,640.428894 176.792816,640.428894 185.885452,640.079346 
M780.952881,640.619202 
	C782.367859,640.490540 783.782837,640.361938 786.272095,640.135620 
	C782.530579,633.648376 779.244446,627.950745 775.220825,620.974304 
	C771.033020,628.028259 767.680603,633.675110 763.557373,640.620300 
	C770.224976,640.620300 775.149597,640.620300 780.952881,640.619202 
z"/>
    <path fill="#FFFFFF" stroke="none" 
	d="
M418.685486,188.678131 
	C435.147247,160.143692 451.454468,131.942764 467.724640,103.720490 
	C472.052521,96.213333 472.603851,96.075356 476.888428,103.443268 
	C493.855194,132.619797 510.701477,161.866394 527.613403,191.074890 
	C544.517761,220.270325 561.456421,249.445862 578.362793,278.640137 
	C595.941284,308.995056 613.482422,339.371582 631.086182,369.711823 
	C633.363098,373.636139 633.092163,376.682434 630.068665,380.455780 
	C612.917786,401.860046 596.131042,423.555542 579.128357,445.079285 
	C559.755737,469.603149 540.268372,494.036346 520.865417,518.536377 
	C507.341156,535.613525 493.881683,552.741943 480.379639,569.836670 
	C475.487946,576.029907 474.978271,576.044434 470.048798,569.640381 
	C443.477539,535.120789 416.959595,500.560059 390.369690,466.054810 
	C366.312592,434.836273 342.195099,403.664276 318.076447,372.493286 
	C315.923340,369.710602 315.382843,367.164307 317.320526,363.851227 
	C329.073395,343.755920 340.654022,323.559845 352.298187,303.400940 
	C367.269440,277.482086 382.236908,251.561020 397.225006,225.651886 
	C404.299530,213.422607 411.418335,201.218933 418.685486,188.678131 
M447.599884,537.787109 
	C455.331635,547.803894 463.010071,557.862549 470.816345,567.820923 
	C475.098816,573.284058 475.267639,573.264648 479.408417,568.047180 
	C501.864655,539.751953 524.313965,511.451111 546.705688,483.104828 
	C574.156006,448.354736 601.504822,413.524261 629.038147,378.840210 
	C631.432434,375.824127 631.519348,373.514313 629.694763,370.370972 
	C614.319885,343.883057 599.054260,317.331757 583.720703,290.819824 
	C551.135742,234.480011 518.535034,178.149261 485.925476,121.823708 
	C481.703766,114.531616 477.391174,107.292122 472.690277,99.296150 
	C471.072144,101.676239 469.878754,103.214691 468.912445,104.884529 
	C443.984344,147.961288 419.090454,191.057831 394.168518,234.138168 
	C369.246277,277.218964 344.328461,320.302399 319.307159,363.325653 
	C317.440063,366.536011 317.547028,368.916534 319.808624,371.834442 
	C340.303467,398.276917 360.707214,424.790070 381.116028,451.299194 
	C403.153870,479.924255 425.168488,508.567200 447.599884,537.787109 
z"/>
    <path fill="#FFFFFF" stroke="none" 
	d="
M206.775482,521.144409 
	C212.051178,511.018066 217.525864,500.794006 223.310104,490.748169 
	C241.580994,459.016022 259.969360,427.351501 278.308899,395.658844 
	C283.561279,386.582214 288.702545,377.439056 294.108490,368.455017 
	C295.743439,365.737854 295.543213,363.901459 293.605225,361.397308 
	C271.190460,332.434235 248.893082,303.380219 226.576736,274.341034 
	C216.131256,260.748840 205.698486,247.146820 195.301208,233.517776 
	C194.208221,232.085052 193.394775,230.439102 192.451630,228.892075 
	C191.837463,229.212860 191.223297,229.533646 190.609131,229.854431 
	C188.698471,234.387161 186.701965,238.885864 184.890121,243.457764 
	C160.366760,305.338440 135.868179,367.228912 111.365807,429.117859 
	C106.465248,441.495850 101.388878,453.810303 96.843269,466.317444 
	C95.982071,468.687042 96.323219,472.414154 97.665199,474.526733 
	C120.067337,509.792664 142.713364,544.903687 165.327011,580.035095 
	C166.196777,581.386353 167.286530,582.596008 168.896210,584.675842 
	C181.313400,563.367493 193.323685,542.757446 205.652405,522.052002 
	C203.639313,526.650146 201.525833,531.467712 198.936600,536.014465 
	C190.132477,551.474548 181.156189,566.836548 172.255020,582.241455 
	C169.459702,587.079224 167.447021,587.154297 164.513123,582.562561 
	C151.713852,562.530884 138.901245,542.507629 126.085480,522.486511 
	C115.964203,506.674866 105.693840,490.955200 95.857750,474.968231 
	C94.448387,472.677521 94.028641,468.695923 94.985886,466.200928 
	C103.255447,444.646820 111.997917,423.274750 120.496002,401.807495 
	C129.000961,380.322876 137.339706,358.772522 145.837006,337.284851 
	C156.709824,309.790161 167.680191,282.334015 178.582764,254.851044 
	C181.711014,246.965393 184.697144,239.023178 187.849319,231.147263 
	C189.898880,226.026306 191.403137,225.817352 194.752304,230.162415 
	C212.309372,252.940125 229.832977,275.743622 247.366226,298.539673 
	C263.277924,319.227386 279.136963,339.955994 295.152832,360.562714 
	C297.490570,363.570526 297.395599,365.882233 295.534790,369.082611 
	C274.141205,405.876495 252.914902,442.767609 231.572464,479.591339 
	C223.515747,493.492218 215.273697,507.285736 206.775482,521.144409 
z"/>
    <path fill="#FFFFFF" stroke="none" 
	d="
M803.818115,634.518433 
	C805.335327,633.212952 807.454163,632.610596 808.151794,631.269165 
	C820.311035,607.888306 829.879822,583.461853 836.130066,557.858765 
	C839.553284,543.836060 841.976318,529.568481 844.800842,515.401428 
	C845.118835,513.806152 845.113159,512.146362 845.257629,510.516510 
	C844.557922,509.917847 843.858276,509.319183 843.158630,508.720520 
	C842.787537,509.951477 842.654297,511.325989 842.010559,512.392395 
	C824.309326,541.719604 806.503296,570.983887 788.946350,600.396912 
	C787.926025,602.106140 788.854492,604.978577 788.851929,607.708618 
	C785.209351,605.883118 785.273254,602.891724 787.219727,599.669861 
	C800.640564,577.455811 814.095764,555.262573 827.539673,533.062439 
	C832.190918,525.381714 836.824585,517.690125 841.503845,510.026520 
	C842.698364,508.070160 844.036255,506.201263 845.308228,504.292175 
	C845.810547,504.315033 846.312866,504.337891 846.815247,504.360748 
	C846.976807,506.225830 847.571228,508.173676 847.232788,509.943085 
	C843.990784,526.892578 841.174622,543.953735 837.100708,560.706726 
	C830.911377,586.158630 821.008118,610.308960 808.997009,633.571228 
	C808.026306,635.451355 806.763611,639.613953 803.818115,634.518433 
z"/>
    <path fill="#FFFFFF" stroke="none" 
	d="
M799.326294,626.965454 
	C800.956177,628.878845 802.456848,631.138245 803.903442,633.752197 
	C802.298584,631.841675 800.747803,629.576538 799.326294,626.965454 
z"/>
    <path fill="#FFFFFF" stroke="none" 
	d="
M794.979004,619.283447 
	C796.301270,620.787354 797.543274,622.642578 798.713501,624.845520 
	C797.394043,623.340393 796.146362,621.487488 794.979004,619.283447 
z"/>
    <path fill="#FFFFFF" stroke="none" 
	d="
M789.104126,609.137451 
	C790.078979,610.027771 790.957703,611.259949 791.772339,612.828613 
	C790.808167,611.936462 789.908081,610.707947 789.104126,609.137451 
z"/>
    <path fill="#FFFFFF" stroke="none" 
	d="
M792.026855,614.230286 
	C792.992920,615.098083 793.885803,616.307922 794.715271,617.854370 
	C793.752441,616.984741 792.853027,615.778503 792.026855,614.230286 
z"/>
  </g>
</svg>
